<svg xmlns="http://www.w3.org/2000/svg" width="32" height="28" viewBox="0 0 32 28" id="refresh">
  <g id="Page-1" fill="none" fill-rule="evenodd" stroke="none" stroke-width="1">
    <g id="Asset-1" fill="#000100" fill-rule="nonzero" transform="translate(-4 -4)">
      <g id="Lager_74" transform="translate(4 4)">
        <path id="Shape" d="M14.025 24.011H12.38A10.016 10.016 0 0 1 4 14.142a9.885 9.885 0 0 1 1.148-4.597l1.228 1.7a1.82 1.82 0 0 0 3.23-.578l.977-3.513 1.35-4.845A1.82 1.82 0 0 0 10.175 0L5.422.007 1.82.012A1.82 1.82 0 0 0 .348 2.898l2.259 3.128a13.985 13.985 0 0 0 9.239 21.951c.177.025.357.024.534-.002V28h1.645C15.116 28 16 27.116 16 26.025v-.04a1.975 1.975 0 0 0-1.975-1.974zM29.393 21.974A13.985 13.985 0 0 0 20.154.023a1.875 1.875 0 0 0-.534.002V0h-1.645C16.885 0 16 .884 16 1.974v.04a1.975 1.975 0 0 0 1.975 1.975h1.645c4.83.8 8.374 4.973 8.38 9.869a9.885 9.885 0 0 1-1.148 4.597l-1.228-1.7a1.82 1.82 0 0 0-3.23.578l-.977 3.513-1.35 4.845A1.82 1.82 0 0 0 21.825 28l4.754-.007 3.601-.005a1.82 1.82 0 0 0 1.473-2.886l-2.259-3.128z"></path>
      </g>
    </g>
  </g>
</svg>
